<svg width="60" height="61" viewBox="0 0 60 61" fill="none" xmlns="http://www.w3.org/2000/svg">
<circle cx="30" cy="30.5444" r="30" fill="white"/>
<path d="M54.0002 30.6906C54.0002 17.3548 43.2551 6.54395 30.0003 6.54395C16.7454 6.54395 6.00024 17.3548 6.00024 30.6906C6.00024 42.7429 14.7767 52.7325 26.2502 54.5439V37.6705H20.1565V30.6906H26.2502V25.3708C26.2502 19.319 29.8333 15.9763 35.3154 15.9763C37.9412 15.9763 40.6878 16.4479 40.6878 16.4479V22.3902H37.6614C34.68 22.3902 33.7503 24.2515 33.7503 26.1611V30.6906H40.4065L39.3424 37.6705H33.7502V54.5439C45.2238 52.7325 54.0002 42.7429 54.0002 30.6906Z" fill="#1877F2"/>
</svg>