<svg width="60" height="61" viewBox="0 0 60 61" fill="none" xmlns="http://www.w3.org/2000/svg">
<circle cx="30" cy="30.5444" r="30" fill="white"/>
<path d="M53.0266 30.4691C53.0266 28.5266 52.8658 27.1091 52.5177 25.6392H29.8838V34.4066H43.1694C42.9016 36.5854 41.4552 39.8666 38.2409 42.0715L38.1958 42.365L45.3522 47.7982L45.848 47.8467C50.4015 43.7254 53.0266 37.6616 53.0266 30.4691Z" fill="#4285F4"/>
<path d="M29.8824 53.5694C36.3912 53.5694 41.8554 51.4693 45.8466 47.8468L38.2394 42.0716C36.2038 43.4629 33.4716 44.4342 29.8824 44.4342C23.5074 44.4342 18.0968 40.313 16.168 34.6167L15.8853 34.6402L8.44399 40.284L8.34668 40.5492C12.3109 48.2667 20.4538 53.5694 29.8824 53.5694Z" fill="#34A853"/>
<path d="M16.1694 34.6166C15.6604 33.1467 15.3659 31.5716 15.3659 29.9441C15.3659 28.3165 15.6604 26.7416 16.1426 25.2716L16.1291 24.9585L8.59449 19.2241L8.34798 19.339C6.71412 22.5416 5.77661 26.1379 5.77661 29.9441C5.77661 33.7504 6.71412 37.3465 8.34798 40.549L16.1694 34.6166Z" fill="#FBBC05"/>
<path d="M29.8825 15.4543C34.4092 15.4543 37.4627 17.3705 39.2039 18.9719L46.0074 12.4618C41.829 8.65559 36.3913 6.31934 29.8825 6.31934C20.4538 6.31934 12.3109 11.6218 8.34668 19.3392L16.1413 25.2718C18.0968 19.5756 23.5075 15.4543 29.8825 15.4543Z" fill="#EB4335"/>
</svg>